<svg xmlns="http://www.w3.org/2000/svg">
  <defs>
    <symbol id="icon-law" viewBox="0 0 430 430">
                <g stroke-linecap="round" stroke-linejoin="round" stroke-width="12">
                    <path stroke="#fff" stroke-miterlimit="10" d="M111.661 93.323H350V30H111.661C94.213 30 80 44.213 80 61.661c0 17.449 14.213 31.662 31.661 31.662"/>
                    <path stroke="#fff" stroke-miterlimit="10" d="M80 61.662v306.792c0 8.782 3.582 16.64 9.244 22.302 5.778 5.778 13.635 9.244 22.417 9.244H350V93.208"/>
                    <path stroke="#fff" d="M120 340v-30h95v30z"/>
                    <path stroke="#3c72dc" d="m150 220 17.678-17.678 53.033 53.033-17.678 17.678z"/>
                    <path stroke="#fff" d="m271.131 233.22-23.058 23.058"/>
                    <path stroke="#3c72dc" d="m217.175 152.825 17.678-17.678 53.033 53.033-17.678 17.678z"/>
                    <path stroke="#fff" d="m248.995 212.929 62.983 57.257c8.057 7.324 8.356 19.897.657 27.596s-20.271 7.4-27.596-.657l-57.257-62.983"/>
                    <path stroke="#3c72dc" d="m174.749 209.393 49.497-49.497m38.891 38.891-49.497 49.497"/>
                </g>
    </symbol>
    <symbol id="icon-author" viewBox="0 0 430 430">
        <g stroke-linecap="round" stroke-linejoin="round" stroke-width="12">
            <path stroke="#fff" stroke-miterlimit="13.4906" d="M382.5 215c0 92.493-75.007 167.5-167.5 167.5S47.5 307.493 47.5 215 122.507 47.5 215 47.5 382.5 122.507 382.5 215"/>
            <path stroke="#fff" stroke-miterlimit="22.1245" d="m93.597 330.442.199-4.471c0-42.52 34.473-76.994 76.994-76.994h88.122c42.52 0 76.994 34.474 76.994 76.994l-.199 5.166"/>
            <path stroke="#3c72dc" stroke-miterlimit="22.1245" d="M257.52 126.68c8.147 9.736 13.015 22.155 13.015 35.864 0 30.798-24.936 55.734-55.734 55.734s-55.734-24.936-55.734-55.734c0-30.797 24.936-55.733 55.734-55.733 17.187-.1 32.487 7.649 42.719 19.869"/>
        </g>
    </symbol>
  </defs>
</svg>